<?xml version="1.0" encoding="UTF-8" standalone="no"?>
<!DOCTYPE svg PUBLIC "-//W3C//DTD SVG 1.1//EN" "http://www.w3.org/Graphics/SVG/1.1/DTD/svg11.dtd">
<svg width="100%" height="100%" viewBox="0 0 610 80" version="1.1" xmlns="http://www.w3.org/2000/svg" xmlns:xlink="http://www.w3.org/1999/xlink" xml:space="preserve" xmlns:serif="http://www.serif.com/" style="fill-rule:evenodd;clip-rule:evenodd;stroke-linejoin:round;stroke-miterlimit:2;">
    <g transform="matrix(1,0,0,1,0,2.75)">
        <g transform="matrix(82,0,0,82,256.25,60.68)">
            <path d="M0.129,-0L0.129,-0.584C0.129,-0.614 0.136,-0.641 0.149,-0.664C0.162,-0.687 0.181,-0.706 0.204,-0.719C0.227,-0.732 0.254,-0.739 0.285,-0.739C0.306,-0.739 0.326,-0.735 0.345,-0.727C0.364,-0.719 0.379,-0.708 0.39,-0.695L0.355,-0.616C0.346,-0.624 0.337,-0.631 0.327,-0.636C0.316,-0.641 0.306,-0.643 0.297,-0.643C0.283,-0.643 0.271,-0.641 0.262,-0.637C0.252,-0.632 0.245,-0.626 0.24,-0.617C0.235,-0.608 0.233,-0.597 0.233,-0.584L0.233,-0L0.129,-0ZM0.045,-0.421L0.045,-0.516L0.357,-0.516L0.357,-0.421L0.045,-0.421ZM0.522,-0L0.522,-0.584C0.522,-0.614 0.529,-0.641 0.542,-0.664C0.555,-0.687 0.574,-0.706 0.597,-0.719C0.62,-0.732 0.647,-0.739 0.678,-0.739C0.699,-0.739 0.719,-0.735 0.738,-0.727C0.757,-0.719 0.772,-0.708 0.783,-0.695L0.748,-0.616C0.739,-0.624 0.73,-0.631 0.72,-0.636C0.709,-0.641 0.699,-0.643 0.69,-0.643C0.676,-0.643 0.664,-0.641 0.655,-0.637C0.645,-0.632 0.638,-0.626 0.633,-0.617C0.628,-0.608 0.626,-0.597 0.626,-0.584L0.626,-0L0.522,-0ZM0.438,-0.421L0.438,-0.516L0.75,-0.516L0.75,-0.421L0.438,-0.421ZM0.875,-0L0.875,-0.525L0.978,-0.525L0.978,-0L0.875,-0ZM0.925,-0.641C0.903,-0.641 0.886,-0.647 0.874,-0.658C0.862,-0.669 0.856,-0.685 0.856,-0.706C0.856,-0.725 0.862,-0.741 0.875,-0.753C0.887,-0.765 0.904,-0.771 0.925,-0.771C0.947,-0.771 0.964,-0.765 0.976,-0.754C0.988,-0.743 0.994,-0.727 0.994,-0.706C0.994,-0.687 0.988,-0.671 0.976,-0.659C0.963,-0.647 0.946,-0.641 0.925,-0.641Z" style="fill-rule:nonzero;"/>
        </g>
        <g transform="matrix(82,0,0,82,256.25,60.68)">
        </g>
        <g transform="matrix(82,0,0,82,288.476,60.68)">
        </g>
        <g transform="matrix(82,0,0,82,320.702,60.68)">
        </g>
        <g transform="matrix(82,0,0,82,608.686,60.68)">
        </g>
        <text x="0px" y="60.68px" style="font-family:'Lexend-Regular', 'Lexend';font-size:82px;">@theo<tspan x="343.498px " y="60.68px ">c</tspan>ial<tspan x="481.504px " y="60.68px ">j</tspan>uri</text>
    </g>
</svg>
