<?xml version="1.0" encoding="UTF-8" standalone="no"?>
<!DOCTYPE svg PUBLIC "-//W3C//DTD SVG 1.1//EN" "http://www.w3.org/Graphics/SVG/1.1/DTD/svg11.dtd">
<svg width="100%" height="100%" viewBox="0 0 1025 1024" version="1.1" xmlns="http://www.w3.org/2000/svg" xmlns:xlink="http://www.w3.org/1999/xlink" xml:space="preserve" xmlns:serif="http://www.serif.com/" style="fill-rule:evenodd;clip-rule:evenodd;stroke-linejoin:round;stroke-miterlimit:2;">
    <g transform="matrix(1.40192,0,0,1.40192,-206.162,-206.082)">
        <path d="M512.7,878C714.56,878 878.2,714.36 878.2,512.5C878.2,310.64 714.56,147 512.7,147C310.84,147 147.2,310.64 147.2,512.5C147.2,714.36 310.84,878 512.7,878Z" style="fill:rgb(255,0,51);fill-rule:nonzero;"/>
    </g>
    <g transform="matrix(1.40192,0,0,1.40192,-206.162,-206.082)">
        <path d="M513.2,710.138C622.629,710.138 711.338,621.429 711.338,512C711.338,402.572 622.629,313.862 513.2,313.862C403.772,313.862 315.062,402.572 315.062,512C315.062,621.429 403.772,710.138 513.2,710.138ZM734.2,512C734.2,634.055 635.255,733 513.2,733C391.145,733 292.2,634.055 292.2,512C292.2,389.945 391.145,291 513.2,291C635.255,291 734.2,389.945 734.2,512Z" style="fill:white;"/>
    </g>
    <g transform="matrix(1.40192,0,0,1.40192,-206.162,-206.082)">
        <path d="M437.2,626.5L635.2,512.25L437.2,398L437.2,626.5Z" style="fill:white;fill-rule:nonzero;"/>
    </g>
</svg>
